<mxfile host="Electron" agent="Mozilla/5.0 (Windows NT 10.0; Win64; x64) AppleWebKit/537.36 (KHTML, like Gecko) draw.io/28.1.2 Chrome/138.0.7204.243 Electron/37.4.0 Safari/537.36" version="28.1.2">
  <diagram name="Page-1" id="qaHxjlIgyF3mS0MB5tUM">
    <mxGraphModel dx="1544" dy="597" grid="1" gridSize="10" guides="1" tooltips="1" connect="1" arrows="1" fold="1" page="1" pageScale="1" pageWidth="850" pageHeight="1100" math="0" shadow="0">
      <root>
        <mxCell id="0" />
        <mxCell id="1" parent="0" />
        <mxCell id="HyrF-hgenXq-LI7c3E3h-1" value="&lt;b&gt;&lt;font style=&quot;font-size: 20px;&quot;&gt;Data Flow Diagram&lt;/font&gt;&lt;/b&gt;" style="text;html=1;align=center;verticalAlign=middle;whiteSpace=wrap;rounded=0;" parent="1" vertex="1">
          <mxGeometry x="-170" y="10" width="250" height="30" as="geometry" />
        </mxCell>
        <mxCell id="HyrF-hgenXq-LI7c3E3h-2" value="" style="rounded=0;whiteSpace=wrap;html=1;fillColor=none;dashed=1;strokeColor=default;" parent="1" vertex="1">
          <mxGeometry x="-150" y="90" width="120" height="360" as="geometry" />
        </mxCell>
        <mxCell id="HyrF-hgenXq-LI7c3E3h-3" value="&lt;font style=&quot;font-size: 15px;&quot;&gt;Sources&lt;/font&gt;" style="rounded=0;whiteSpace=wrap;html=1;fillColor=default;strokeColor=none;" parent="1" vertex="1">
          <mxGeometry x="-125" y="70" width="70" height="40" as="geometry" />
        </mxCell>
        <mxCell id="HyrF-hgenXq-LI7c3E3h-14" style="edgeStyle=orthogonalEdgeStyle;rounded=0;orthogonalLoop=1;jettySize=auto;html=1;entryX=0;entryY=0.5;entryDx=0;entryDy=0;" parent="1" source="HyrF-hgenXq-LI7c3E3h-4" target="HyrF-hgenXq-LI7c3E3h-11" edge="1">
          <mxGeometry relative="1" as="geometry" />
        </mxCell>
        <mxCell id="HyrF-hgenXq-LI7c3E3h-22" style="edgeStyle=orthogonalEdgeStyle;rounded=0;orthogonalLoop=1;jettySize=auto;html=1;entryX=0;entryY=0.5;entryDx=0;entryDy=0;" parent="1" source="HyrF-hgenXq-LI7c3E3h-4" target="HyrF-hgenXq-LI7c3E3h-10" edge="1">
          <mxGeometry relative="1" as="geometry" />
        </mxCell>
        <mxCell id="HyrF-hgenXq-LI7c3E3h-4" value="&lt;font style=&quot;font-size: 14px;&quot;&gt;CRM&lt;/font&gt;" style="image;aspect=fixed;html=1;points=[];align=center;fontSize=12;image=img/lib/azure2/general/Folder_Blank.svg;" parent="1" vertex="1">
          <mxGeometry x="-114.64" y="155" width="49.29" height="40" as="geometry" />
        </mxCell>
        <mxCell id="HyrF-hgenXq-LI7c3E3h-5" value="&lt;font style=&quot;font-size: 14px;&quot;&gt;ERP&lt;/font&gt;" style="image;aspect=fixed;html=1;points=[];align=center;fontSize=12;image=img/lib/azure2/general/Folder_Blank.svg;" parent="1" vertex="1">
          <mxGeometry x="-114.64" y="325" width="49.29" height="40" as="geometry" />
        </mxCell>
        <mxCell id="HyrF-hgenXq-LI7c3E3h-6" value="" style="rounded=0;whiteSpace=wrap;html=1;fillColor=none;fontColor=#000000;strokeColor=#BD7000;" parent="1" vertex="1">
          <mxGeometry x="40" y="90" width="120" height="360" as="geometry" />
        </mxCell>
        <mxCell id="HyrF-hgenXq-LI7c3E3h-7" value="Bronze Layer" style="rounded=0;whiteSpace=wrap;html=1;fillColor=light-dark(#f0a30a, #ffe9bd);strokeColor=light-dark(#FF9300, #ffe6c2);fontColor=#000000;" parent="1" vertex="1">
          <mxGeometry x="55" y="70" width="90" height="30" as="geometry" />
        </mxCell>
        <mxCell id="A2KfE7E6hWgVUClvY2Dg-9" style="edgeStyle=orthogonalEdgeStyle;rounded=0;orthogonalLoop=1;jettySize=auto;html=1;entryX=0;entryY=0.5;entryDx=0;entryDy=0;" parent="1" source="HyrF-hgenXq-LI7c3E3h-9" target="A2KfE7E6hWgVUClvY2Dg-3" edge="1">
          <mxGeometry relative="1" as="geometry" />
        </mxCell>
        <mxCell id="HyrF-hgenXq-LI7c3E3h-9" value="&lt;font style=&quot;color: rgb(0, 0, 0);&quot;&gt;crm_sales_details&lt;/font&gt;" style="rounded=0;whiteSpace=wrap;html=1;fillColor=light-dark(#f0a30a, #ffe9bd);strokeColor=light-dark(#FF9300, #ffe6c2);fontColor=#000000;" parent="1" vertex="1">
          <mxGeometry x="45" y="120" width="110" height="30" as="geometry" />
        </mxCell>
        <mxCell id="A2KfE7E6hWgVUClvY2Dg-10" style="edgeStyle=orthogonalEdgeStyle;rounded=0;orthogonalLoop=1;jettySize=auto;html=1;entryX=0;entryY=0.5;entryDx=0;entryDy=0;" parent="1" source="HyrF-hgenXq-LI7c3E3h-10" target="A2KfE7E6hWgVUClvY2Dg-4" edge="1">
          <mxGeometry relative="1" as="geometry" />
        </mxCell>
        <mxCell id="HyrF-hgenXq-LI7c3E3h-10" value="&lt;font style=&quot;color: rgb(0, 0, 0);&quot;&gt;crm_cust_info&lt;/font&gt;" style="rounded=0;whiteSpace=wrap;html=1;fillColor=light-dark(#f0a30a, #ffe9bd);strokeColor=light-dark(#FF9300, #ffe6c2);fontColor=#000000;" parent="1" vertex="1">
          <mxGeometry x="45" y="160" width="110" height="30" as="geometry" />
        </mxCell>
        <mxCell id="A2KfE7E6hWgVUClvY2Dg-11" style="edgeStyle=orthogonalEdgeStyle;rounded=0;orthogonalLoop=1;jettySize=auto;html=1;entryX=0;entryY=0.5;entryDx=0;entryDy=0;" parent="1" source="HyrF-hgenXq-LI7c3E3h-11" target="A2KfE7E6hWgVUClvY2Dg-5" edge="1">
          <mxGeometry relative="1" as="geometry" />
        </mxCell>
        <mxCell id="HyrF-hgenXq-LI7c3E3h-11" value="&lt;font style=&quot;color: rgb(0, 0, 0);&quot;&gt;crm_prd_info&lt;/font&gt;" style="rounded=0;whiteSpace=wrap;html=1;fillColor=light-dark(#f0a30a, #ffe9bd);strokeColor=light-dark(#FF9300, #ffe6c2);fontColor=#000000;" parent="1" vertex="1">
          <mxGeometry x="45" y="200" width="110" height="30" as="geometry" />
        </mxCell>
        <mxCell id="HyrF-hgenXq-LI7c3E3h-12" style="edgeStyle=orthogonalEdgeStyle;rounded=0;orthogonalLoop=1;jettySize=auto;html=1;entryX=0;entryY=0.5;entryDx=0;entryDy=0;" parent="1" source="HyrF-hgenXq-LI7c3E3h-4" target="HyrF-hgenXq-LI7c3E3h-9" edge="1">
          <mxGeometry relative="1" as="geometry">
            <mxPoint x="-60" y="180" as="sourcePoint" />
            <mxPoint x="42" y="134" as="targetPoint" />
          </mxGeometry>
        </mxCell>
        <mxCell id="A2KfE7E6hWgVUClvY2Dg-12" style="edgeStyle=orthogonalEdgeStyle;rounded=0;orthogonalLoop=1;jettySize=auto;html=1;entryX=0;entryY=0.5;entryDx=0;entryDy=0;" parent="1" source="HyrF-hgenXq-LI7c3E3h-15" target="A2KfE7E6hWgVUClvY2Dg-6" edge="1">
          <mxGeometry relative="1" as="geometry" />
        </mxCell>
        <mxCell id="HyrF-hgenXq-LI7c3E3h-15" value="&lt;font style=&quot;color: rgb(0, 0, 0);&quot;&gt;erp_cust_az12&lt;/font&gt;" style="rounded=0;whiteSpace=wrap;html=1;fillColor=light-dark(#f0a30a, #ffe9bd);strokeColor=light-dark(#FF9300, #ffe6c2);fontColor=#000000;" parent="1" vertex="1">
          <mxGeometry x="45" y="290" width="110" height="30" as="geometry" />
        </mxCell>
        <mxCell id="A2KfE7E6hWgVUClvY2Dg-13" style="edgeStyle=orthogonalEdgeStyle;rounded=0;orthogonalLoop=1;jettySize=auto;html=1;entryX=0;entryY=0.5;entryDx=0;entryDy=0;" parent="1" source="HyrF-hgenXq-LI7c3E3h-16" target="A2KfE7E6hWgVUClvY2Dg-7" edge="1">
          <mxGeometry relative="1" as="geometry" />
        </mxCell>
        <mxCell id="HyrF-hgenXq-LI7c3E3h-16" value="&lt;font style=&quot;color: rgb(0, 0, 0);&quot;&gt;erp_loc_a101&lt;/font&gt;" style="rounded=0;whiteSpace=wrap;html=1;fillColor=light-dark(#f0a30a, #ffe9bd);strokeColor=light-dark(#FF9300, #ffe6c2);fontColor=#000000;" parent="1" vertex="1">
          <mxGeometry x="45" y="330" width="110" height="30" as="geometry" />
        </mxCell>
        <mxCell id="HyrF-hgenXq-LI7c3E3h-17" value="&lt;font style=&quot;color: rgb(0, 0, 0);&quot;&gt;erp_px_cat_g1v2&lt;/font&gt;" style="rounded=0;whiteSpace=wrap;html=1;fillColor=light-dark(#f0a30a, #ffe9bd);strokeColor=light-dark(#FF9300, #ffe6c2);fontColor=#000000;" parent="1" vertex="1">
          <mxGeometry x="45" y="370" width="110" height="30" as="geometry" />
        </mxCell>
        <mxCell id="HyrF-hgenXq-LI7c3E3h-18" style="edgeStyle=orthogonalEdgeStyle;rounded=0;orthogonalLoop=1;jettySize=auto;html=1;entryX=0;entryY=0.5;entryDx=0;entryDy=0;" parent="1" source="HyrF-hgenXq-LI7c3E3h-5" target="HyrF-hgenXq-LI7c3E3h-15" edge="1">
          <mxGeometry relative="1" as="geometry" />
        </mxCell>
        <mxCell id="HyrF-hgenXq-LI7c3E3h-19" style="edgeStyle=orthogonalEdgeStyle;rounded=0;orthogonalLoop=1;jettySize=auto;html=1;entryX=0;entryY=0.5;entryDx=0;entryDy=0;" parent="1" source="HyrF-hgenXq-LI7c3E3h-5" target="HyrF-hgenXq-LI7c3E3h-16" edge="1">
          <mxGeometry relative="1" as="geometry">
            <mxPoint x="43" y="345" as="targetPoint" />
          </mxGeometry>
        </mxCell>
        <mxCell id="HyrF-hgenXq-LI7c3E3h-20" style="edgeStyle=orthogonalEdgeStyle;rounded=0;orthogonalLoop=1;jettySize=auto;html=1;entryX=0;entryY=0.5;entryDx=0;entryDy=0;" parent="1" source="HyrF-hgenXq-LI7c3E3h-5" target="HyrF-hgenXq-LI7c3E3h-17" edge="1">
          <mxGeometry relative="1" as="geometry" />
        </mxCell>
        <mxCell id="A2KfE7E6hWgVUClvY2Dg-1" value="" style="rounded=0;whiteSpace=wrap;html=1;fillColor=none;strokeColor=#666666;fontColor=#333333;" parent="1" vertex="1">
          <mxGeometry x="220" y="90" width="120" height="360" as="geometry" />
        </mxCell>
        <mxCell id="A2KfE7E6hWgVUClvY2Dg-2" value="Silver Layer" style="rounded=0;whiteSpace=wrap;html=1;fillColor=#f5f5f5;strokeColor=#666666;fontColor=#333333;" parent="1" vertex="1">
          <mxGeometry x="235" y="70" width="90" height="30" as="geometry" />
        </mxCell>
        <mxCell id="A2KfE7E6hWgVUClvY2Dg-3" value="&lt;font style=&quot;color: rgb(0, 0, 0);&quot;&gt;crm_sales_details&lt;/font&gt;" style="rounded=0;whiteSpace=wrap;html=1;fillColor=#f5f5f5;strokeColor=#666666;fontColor=#333333;" parent="1" vertex="1">
          <mxGeometry x="225" y="120" width="110" height="30" as="geometry" />
        </mxCell>
        <mxCell id="A2KfE7E6hWgVUClvY2Dg-4" value="&lt;font style=&quot;color: rgb(0, 0, 0);&quot;&gt;crm_cust_info&lt;/font&gt;" style="rounded=0;whiteSpace=wrap;html=1;fillColor=#f5f5f5;strokeColor=#666666;fontColor=#333333;" parent="1" vertex="1">
          <mxGeometry x="225" y="160" width="110" height="30" as="geometry" />
        </mxCell>
        <mxCell id="A2KfE7E6hWgVUClvY2Dg-5" value="&lt;font style=&quot;color: rgb(0, 0, 0);&quot;&gt;crm_prd_info&lt;/font&gt;" style="rounded=0;whiteSpace=wrap;html=1;fillColor=#f5f5f5;strokeColor=#666666;fontColor=#333333;" parent="1" vertex="1">
          <mxGeometry x="225" y="200" width="110" height="30" as="geometry" />
        </mxCell>
        <mxCell id="A2KfE7E6hWgVUClvY2Dg-6" value="&lt;font style=&quot;color: rgb(0, 0, 0);&quot;&gt;erp_cust_az12&lt;/font&gt;" style="rounded=0;whiteSpace=wrap;html=1;fillColor=#f5f5f5;strokeColor=#666666;fontColor=#333333;" parent="1" vertex="1">
          <mxGeometry x="225" y="290" width="110" height="30" as="geometry" />
        </mxCell>
        <mxCell id="A2KfE7E6hWgVUClvY2Dg-7" value="&lt;font style=&quot;color: rgb(0, 0, 0);&quot;&gt;erp_loc_a101&lt;/font&gt;" style="rounded=0;whiteSpace=wrap;html=1;fillColor=#f5f5f5;strokeColor=#666666;fontColor=#333333;" parent="1" vertex="1">
          <mxGeometry x="225" y="330" width="110" height="30" as="geometry" />
        </mxCell>
        <mxCell id="A2KfE7E6hWgVUClvY2Dg-8" value="&lt;font style=&quot;color: rgb(0, 0, 0);&quot;&gt;erp_px_cat_g1v2&lt;/font&gt;" style="rounded=0;whiteSpace=wrap;html=1;fillColor=#f5f5f5;strokeColor=#666666;fontColor=#333333;" parent="1" vertex="1">
          <mxGeometry x="225" y="370" width="110" height="30" as="geometry" />
        </mxCell>
        <mxCell id="A2KfE7E6hWgVUClvY2Dg-14" style="edgeStyle=orthogonalEdgeStyle;rounded=0;orthogonalLoop=1;jettySize=auto;html=1;entryX=0.042;entryY=0.822;entryDx=0;entryDy=0;entryPerimeter=0;" parent="1" source="HyrF-hgenXq-LI7c3E3h-17" target="A2KfE7E6hWgVUClvY2Dg-1" edge="1">
          <mxGeometry relative="1" as="geometry" />
        </mxCell>
        <mxCell id="7bQBxNBu7VF-Onyr-HNl-1" value="" style="rounded=0;whiteSpace=wrap;html=1;fillColor=none;strokeColor=#BD7000;fontColor=#000000;" vertex="1" parent="1">
          <mxGeometry x="400" y="90" width="120" height="360" as="geometry" />
        </mxCell>
        <mxCell id="7bQBxNBu7VF-Onyr-HNl-2" value="Gold Layer" style="rounded=0;whiteSpace=wrap;html=1;fillColor=#f0a30a;strokeColor=#BD7000;fontColor=#000000;" vertex="1" parent="1">
          <mxGeometry x="415" y="70" width="90" height="30" as="geometry" />
        </mxCell>
        <mxCell id="7bQBxNBu7VF-Onyr-HNl-3" value="&lt;font style=&quot;color: rgb(0, 0, 0);&quot;&gt;fact_sales&lt;/font&gt;" style="rounded=0;whiteSpace=wrap;html=1;fillColor=#f0a30a;strokeColor=#BD7000;fontColor=#000000;" vertex="1" parent="1">
          <mxGeometry x="405" y="150" width="110" height="30" as="geometry" />
        </mxCell>
        <mxCell id="7bQBxNBu7VF-Onyr-HNl-4" value="&lt;font style=&quot;color: rgb(0, 0, 0);&quot;&gt;dim_customers&lt;/font&gt;" style="rounded=0;whiteSpace=wrap;html=1;fillColor=#f0a30a;strokeColor=#BD7000;fontColor=#000000;" vertex="1" parent="1">
          <mxGeometry x="405" y="230" width="110" height="30" as="geometry" />
        </mxCell>
        <mxCell id="7bQBxNBu7VF-Onyr-HNl-5" value="&lt;font style=&quot;color: rgb(0, 0, 0);&quot;&gt;dim_products&lt;/font&gt;" style="rounded=0;whiteSpace=wrap;html=1;fillColor=#f0a30a;strokeColor=#BD7000;fontColor=#000000;" vertex="1" parent="1">
          <mxGeometry x="405" y="350" width="110" height="30" as="geometry" />
        </mxCell>
        <mxCell id="7bQBxNBu7VF-Onyr-HNl-11" value="" style="endArrow=classic;html=1;rounded=0;exitX=1;exitY=0.5;exitDx=0;exitDy=0;entryX=0;entryY=0.5;entryDx=0;entryDy=0;jumpStyle=gap;" edge="1" parent="1" source="A2KfE7E6hWgVUClvY2Dg-4" target="7bQBxNBu7VF-Onyr-HNl-4">
          <mxGeometry width="50" height="50" relative="1" as="geometry">
            <mxPoint x="270" y="270" as="sourcePoint" />
            <mxPoint x="320" y="220" as="targetPoint" />
          </mxGeometry>
        </mxCell>
        <mxCell id="7bQBxNBu7VF-Onyr-HNl-12" value="" style="endArrow=classic;html=1;rounded=0;exitX=1;exitY=0.5;exitDx=0;exitDy=0;entryX=0;entryY=0.5;entryDx=0;entryDy=0;jumpStyle=gap;" edge="1" parent="1" source="A2KfE7E6hWgVUClvY2Dg-6" target="7bQBxNBu7VF-Onyr-HNl-4">
          <mxGeometry width="50" height="50" relative="1" as="geometry">
            <mxPoint x="360" y="190" as="sourcePoint" />
            <mxPoint x="430" y="260" as="targetPoint" />
          </mxGeometry>
        </mxCell>
        <mxCell id="7bQBxNBu7VF-Onyr-HNl-13" value="" style="endArrow=classic;html=1;rounded=0;exitX=1;exitY=0.5;exitDx=0;exitDy=0;entryX=0;entryY=0.5;entryDx=0;entryDy=0;jumpStyle=gap;" edge="1" parent="1" source="A2KfE7E6hWgVUClvY2Dg-7" target="7bQBxNBu7VF-Onyr-HNl-4">
          <mxGeometry width="50" height="50" relative="1" as="geometry">
            <mxPoint x="370" y="300" as="sourcePoint" />
            <mxPoint x="440" y="370" as="targetPoint" />
          </mxGeometry>
        </mxCell>
        <mxCell id="7bQBxNBu7VF-Onyr-HNl-14" value="" style="endArrow=classic;html=1;rounded=0;exitX=1;exitY=0.5;exitDx=0;exitDy=0;entryX=0;entryY=0.5;entryDx=0;entryDy=0;jumpStyle=gap;" edge="1" parent="1" source="A2KfE7E6hWgVUClvY2Dg-5" target="7bQBxNBu7VF-Onyr-HNl-5">
          <mxGeometry width="50" height="50" relative="1" as="geometry">
            <mxPoint x="390" y="280" as="sourcePoint" />
            <mxPoint x="460" y="350" as="targetPoint" />
          </mxGeometry>
        </mxCell>
        <mxCell id="7bQBxNBu7VF-Onyr-HNl-15" value="" style="endArrow=classic;html=1;rounded=0;exitX=1;exitY=0.5;exitDx=0;exitDy=0;entryX=0;entryY=0.5;entryDx=0;entryDy=0;jumpStyle=gap;" edge="1" parent="1" source="A2KfE7E6hWgVUClvY2Dg-8" target="7bQBxNBu7VF-Onyr-HNl-5">
          <mxGeometry width="50" height="50" relative="1" as="geometry">
            <mxPoint x="380" y="350" as="sourcePoint" />
            <mxPoint x="450" y="420" as="targetPoint" />
          </mxGeometry>
        </mxCell>
        <mxCell id="7bQBxNBu7VF-Onyr-HNl-16" value="" style="endArrow=classic;html=1;rounded=0;exitX=1;exitY=0.5;exitDx=0;exitDy=0;entryX=0;entryY=0.5;entryDx=0;entryDy=0;" edge="1" parent="1" source="A2KfE7E6hWgVUClvY2Dg-3" target="7bQBxNBu7VF-Onyr-HNl-3">
          <mxGeometry width="50" height="50" relative="1" as="geometry">
            <mxPoint x="400" y="200" as="sourcePoint" />
            <mxPoint x="470" y="270" as="targetPoint" />
          </mxGeometry>
        </mxCell>
      </root>
    </mxGraphModel>
  </diagram>
</mxfile>
